<?xml version="1.0" encoding="utf-8"?>
<!-- Generator: Adobe Illustrator 15.1.0, SVG Export Plug-In . SVG Version: 6.00 Build 0)  -->
<!DOCTYPE svg PUBLIC "-//W3C//DTD SVG 1.1//EN" "http://www.w3.org/Graphics/SVG/1.1/DTD/svg11.dtd">
<svg version="1.1" id="Layer_1" xmlns="http://www.w3.org/2000/svg" xmlns:xlink="http://www.w3.org/1999/xlink" x="0px" y="0px"
	 width="250px" height="250px" viewBox="5.97 16.5 250 250" enable-background="new 5.97 16.5 250 250" xml:space="preserve">
<g>
	<g>
		<defs>
			<rect id="SVGID_1_" x="-131.03" y="-35.985" width="525.5" height="350.333"/>
		</defs>
		<clipPath id="SVGID_2_">
			<use xlink:href="#SVGID_1_"  overflow="visible"/>
		</clipPath>
		<path clip-path="url(#SVGID_2_)" fill="#FFFFFF" d="M29.933,260.937c-4.712,0-8.568-3.955-8.568-8.79V68.285
			c0-4.834,3.856-8.79,8.568-8.79h203.574c4.712,0,8.568,3.955,8.568,8.79v183.862c0,4.835-3.856,8.79-8.568,8.79H29.933z"/>
	</g>
	<g>
		<defs>
			<rect id="SVGID_3_" x="-131.03" y="-35.985" width="525.5" height="350.333"/>
		</defs>
		<clipPath id="SVGID_4_">
			<use xlink:href="#SVGID_3_"  overflow="visible"/>
		</clipPath>
		<polygon clip-path="url(#SVGID_4_)" fill="#DCDBDB" points="72.186,80.947 191.609,80.947 186.683,61.247 77.111,61.247 		"/>
	</g>
	<g>
		<defs>
			<rect id="SVGID_5_" x="-131.03" y="-35.985" width="525.5" height="350.333"/>
		</defs>
		<clipPath id="SVGID_6_">
			<use xlink:href="#SVGID_5_"  overflow="visible"/>
		</clipPath>
		<path clip-path="url(#SVGID_6_)" fill="#010101" d="M233.507,265.289H29.933c-7.125,0-12.921-5.896-12.921-13.143V68.285
			c0-7.247,5.796-13.143,12.921-13.143h203.574c7.126,0,12.921,5.896,12.921,13.143v183.862
			C246.428,259.394,240.633,265.289,233.507,265.289 M29.933,63.848c-2.325,0-4.215,1.991-4.215,4.437v183.862
			c0,2.446,1.89,4.437,4.215,4.437h203.574c2.324,0,4.215-1.99,4.215-4.437V68.285c0-2.446-1.891-4.437-4.215-4.437H29.933z"/>
	</g>
	<g>
		<defs>
			<rect id="SVGID_7_" x="-131.03" y="-35.985" width="525.5" height="350.333"/>
		</defs>
		<clipPath id="SVGID_8_">
			<use xlink:href="#SVGID_7_"  overflow="visible"/>
		</clipPath>
		<path clip-path="url(#SVGID_8_)" fill="#9E459A" d="M177.814,45.684h-21.192c-7.802,0-14.129-6.326-14.129-14.128
			s-6.325-14.128-14.128-14.128s-14.129,6.325-14.129,14.128s-6.325,14.128-14.128,14.128H85.981L78.916,73.94h105.963
			L177.814,45.684z"/>
	</g>
	<g>
		<defs>
			<rect id="SVGID_9_" x="-131.03" y="-35.985" width="525.5" height="350.333"/>
		</defs>
		<clipPath id="SVGID_10_">
			<use xlink:href="#SVGID_9_"  overflow="visible"/>
		</clipPath>
		<polygon clip-path="url(#SVGID_10_)" fill="#292827" points="180.99,145.751 192.373,134.367 180.99,122.982 188.579,115.393 
			199.963,126.777 211.347,115.393 218.937,122.982 207.552,134.367 218.937,145.751 211.347,153.341 199.963,141.957 
			188.579,153.341 		"/>
	</g>
	<g>
		<defs>
			<rect id="SVGID_11_" x="-131.03" y="-35.985" width="525.5" height="350.333"/>
		</defs>
		<clipPath id="SVGID_12_">
			<use xlink:href="#SVGID_11_"  overflow="visible"/>
		</clipPath>
		<polygon clip-path="url(#SVGID_12_)" fill="#292827" points="139.538,226.201 150.923,214.817 139.538,203.432 147.128,195.842 
			158.513,207.227 169.897,195.842 177.487,203.432 166.102,214.817 177.487,226.201 169.897,233.791 158.513,222.406 
			147.128,233.791 		"/>
	</g>
	<g>
		<defs>
			<rect id="SVGID_13_" x="-131.03" y="-35.985" width="525.5" height="350.333"/>
		</defs>
		<clipPath id="SVGID_14_">
			<use xlink:href="#SVGID_13_"  overflow="visible"/>
		</clipPath>
		<polygon clip-path="url(#SVGID_14_)" fill="#292827" points="53.136,127.945 64.52,116.561 53.136,105.176 60.726,97.586 
			72.11,108.971 83.494,97.586 91.084,105.176 79.699,116.561 91.084,127.945 83.494,135.535 72.11,124.15 60.726,135.535 		"/>
	</g>
	<g>
		<defs>
			<rect id="SVGID_15_" x="-131.03" y="-35.985" width="525.5" height="350.333"/>
		</defs>
		<clipPath id="SVGID_16_">
			<use xlink:href="#SVGID_15_"  overflow="visible"/>
		</clipPath>
		<path clip-path="url(#SVGID_16_)" fill="#292827" d="M137.525,120.448c0.339-4.559,0.463-9.292,0.368-14.067l7.394-0.147
			c0.099,5.008-0.031,9.975-0.387,14.759l-0.03,0.385l-7.372-0.575L137.525,120.448z"/>
	</g>
	<g>
		<defs>
			<rect id="SVGID_17_" x="-131.03" y="-35.985" width="525.5" height="350.333"/>
		</defs>
		<clipPath id="SVGID_18_">
			<use xlink:href="#SVGID_17_"  overflow="visible"/>
		</clipPath>
		<path clip-path="url(#SVGID_18_)" fill="#292827" d="M130.765,167.901c-2.768,4.43-5.961,8.555-9.493,12.262l-5.354-5.103
			c3.187-3.344,6.072-7.071,8.575-11.078L130.765,167.901z"/>
	</g>
	<g>
		<defs>
			<rect id="SVGID_19_" x="-131.03" y="-35.985" width="525.5" height="350.333"/>
		</defs>
		<clipPath id="SVGID_20_">
			<use xlink:href="#SVGID_19_"  overflow="visible"/>
		</clipPath>
		<path clip-path="url(#SVGID_20_)" fill="#292827" d="M116.801,184.483c-3.812,3.388-8.038,6.44-12.565,9.074l-3.718-6.393
			c4.1-2.386,7.926-5.147,11.37-8.209L116.801,184.483z"/>
	</g>
	<g>
		<defs>
			<rect id="SVGID_21_" x="-131.03" y="-35.985" width="525.5" height="350.333"/>
		</defs>
		<clipPath id="SVGID_22_">
			<use xlink:href="#SVGID_21_"  overflow="visible"/>
		</clipPath>
		<path clip-path="url(#SVGID_22_)" fill="#292827" d="M132.727,146.047l7.039,2.269c-1.617,5.014-3.608,9.796-5.924,14.212
			l-6.55-3.43C129.41,155.052,131.24,150.661,132.727,146.047"/>
	</g>
	<g>
		<defs>
			<rect id="SVGID_23_" x="-131.03" y="-35.985" width="525.5" height="350.333"/>
		</defs>
		<clipPath id="SVGID_24_">
			<use xlink:href="#SVGID_23_"  overflow="visible"/>
		</clipPath>
		<path clip-path="url(#SVGID_24_)" fill="#292827" d="M136.929,126.525l7.34,0.899c-0.639,5.206-1.578,10.251-2.8,14.998
			l-7.163-1.844C135.447,136.143,136.329,131.415,136.929,126.525"/>
	</g>
	<g>
		<defs>
			<rect id="SVGID_25_" x="-131.03" y="-35.985" width="525.5" height="350.333"/>
		</defs>
		<clipPath id="SVGID_26_">
			<use xlink:href="#SVGID_25_"  overflow="visible"/>
		</clipPath>
		<path clip-path="url(#SVGID_26_)" fill="#9E459A" d="M45.757,210.396c-4.755-16.051,4.431-32.978,20.482-37.733
			c16.048-4.758,32.976,4.43,37.733,20.479c4.757,16.05-4.431,32.977-20.48,37.733C67.443,235.632,50.515,226.445,45.757,210.396
			 M60.311,206.083c2.378,8.024,10.842,12.617,18.867,10.239c8.024-2.379,12.619-10.843,10.24-18.867
			c-2.378-8.023-10.842-12.618-18.866-10.24C62.526,189.595,57.933,198.059,60.311,206.083"/>
	</g>
</g>
</svg>
